<svg xmlns="http://www.w3.org/2000/svg" viewBox="0 0 64 64" enable-background="new 0 0 64 64"><path d="M63.944 49.424c.09-7.24-.89-42.47-.89-43.882s-1.42-3.62-2.844-4.856C58.788-.55 45.632.244 39.855.333 34.077.42 12.12.597 8.92.51c-3.2-.09-7.035-.023-7.2.794-.177.883.268 6.18.268 9.36s.445 15.45.178 21.543-.978 22.16-1.156 25.428c-.178 3.267 2.133 5.916 2.756 5.916.622 0 10.933.354 16.89.442 5.955.088 36.088-.618 37.777-.618 1.69 0 3.822.353 4.89-.44 1.065-.796.532-6.27.62-13.51zm-13.956 10.02c-.355.045-2.045.222-2.267-.087-.22-.31-2.044-4.238-2-4.326.085-.166.89-.44 1.246-.176.355.265 3.377 4.547 3.022 4.59zm3.067-6.533c-.755.133-5.822.398-8.445.487-3.554.12-9.29-.044-9.6-.397-.31-.353.045-14.392.49-15.45.443-1.06 1.51-1.68 4.22-1.9 2.712-.22 8.4 0 10.8.045 2.4.044 3.38.22 3.512.44.133.222-.267 13.466-.267 14.79s.045 1.854-.71 1.986zm-.445 6.226c-.4.088-1.467.22-1.69.044s-2.577-4.15-2.577-4.415c0-.283 1.645-.132 1.733 0 .09.133 2.934 4.283 2.534 4.37zm2.756.265c-.356-.043-1.378.045-1.6-.13-.222-.178-2.8-4.372-2.756-4.592.044-.216 1.067-.353 1.156-.177.09.177 3.555 4.945 3.2 4.9zm2.267-.22c-.356.044-1.245.31-1.51-.044-.268-.353-2.49-4.68-2.534-4.856 0 0 .488-.397.8-.22.31.176 3.598 5.076 3.243 5.12zm2.444.045c-.267 0-1.11.132-1.333-.044-.222-.176-3.467-5.826-3.69-6.224-.173-.31.046-2.075.268-2.03.222.043 4.533 6.49 4.71 6.974.178.486.312 1.325.045 1.325zm.178-11.92c-.09-.132-3.69-6.754-4-6.534-.31.222-.31 1.237-.31 1.37 0 .132 4.177 6.18 4.177 6.313 0 .132.09 4.017 0 3.84s-3.956-6.268-4.133-6.312c-.18-.043-.4.663-.356.84.044.177 4.4 6.445 4.356 6.666-.045.22.133 3.443.045 3.31-.09-.13-4.09-7.24-4.222-7.24-.133 0-.578.487-.578.487s.133-11.302.09-14.304-.4-3.974-1.78-4.24c-1.377-.264-7.777-.794-12.8-.794-5.02 0-9.955-.883-10.132 2.12-.178 3-.222 17.084-.222 18.452 0 1.37.446 2.78 1.112 3.002.667.22 4.89.31 7.867.397 2.977.088 4.8.397 4.8.397l2.354 4.106s-1.333.088-1.6-.177c-.267-.265-1.778-3.31-2.09-3.355-.31-.044-1.02-.044-.888.486s2.045 3.002 1.69 3.09c-.357.088-1.38.177-1.468.044-.09-.132-1.378-3.664-1.822-3.664-.444 0-1.2.177-1.022.574.178.397 1.733 3.134 1.51 3.134-.22 0-1.555.044-1.555.044s-2-3.84-2.268-3.84c-.267 0-1.067.087-.978.44.09.353 1.91 3.576 1.91 3.576s-1.42 0-1.51-.132c-.09-.132-1.778-3.885-2.045-3.885-.268 0-1.156.044-.98.486.18.442 1.868 3.356 1.69 3.356-.178 0-.978.044-.978.044s-2.355-4.415-2.89-4.547c-.532-.132-1.11.662-1.11.662s2.8 4.017 2.445 3.93c-.356-.09-1.822-.133-1.822-.133s-4.178-7.946-4.533-8.21c-.355-.266-1.378.043-1.29.22.09.177 4.49 7.858 4.312 7.902-.178.044-1.11 0-1.11 0s-4.18-8.874-4.58-9.006c-.4-.132-1.02.088-.977.31.044.22 4.978 8.784 4.444 8.784-.532 0-1.688.044-1.82-.044-.134-.088-3.912-8.564-4.223-8.697-.31-.13-1.11-.087-1.067.442.044.53 3.867 8.344 3.644 8.344-.222 0-.755-.044-.755-.044s-4-7.726-4.49-7.77c-.49-.044-1.067.84-1.022 1.104.045.265 4.356 6.71 4.09 6.754-.268.044-1.69.265-1.912.177-.222-.088-3.245-6.71-3.555-6.754-.31-.044-.755.574-.666.706.09.13 3.51 6.224 3.244 6.18-.267-.044-.755.088-.933-.177-.178-.265-3.022-5.474-3.29-5.563-.266-.088-.888.486-.844.75.046.266 2.98 4.857 2.846 4.857-.133 0-.845.132-.933 0-.09-.132-2.045-3.532-2.31-3.532-.268 0-.534.618-.4.97.132.354 1.732 2.562 1.555 2.562-.178 0-.622.132-.756.044-.133-.087-1.29-2.162-1.51-2.206-.223-.044-.623.486-.446.618.178.132 1.245 1.678 1.067 1.678s-5.467.132-7.29.044c-1.82-.088-2.888-.618-2.977-1.545-.09-.928.222-10.508.89-17.836s.532-9.8.22-18.32c-.312-8.52-.578-19.073-.356-19.91.107-.406 4.978-.09 6.845-.09s15.69-.176 23.867-.264c8.178-.088 22.045-.44 22.845-.397.8.044 2.355 0 2.533.486.178.485.49 8.563.31 8.475-.177-.088-.4-.44-.62-.31s-.668 1.06-.58 1.325c.09.265 1.29 1.5 1.29 1.987s.222 1.015.044 1.015-1.91-3.134-2.267-2.825c-.355.31-.49.795-.31 1.192.177.396 2.8 3.398 2.8 4.15 0 .75.043 2.692-.134 2.383-.178-.31-3.29-5.827-3.556-5.607-.267.22-.667.75-.533 1.148s4.045 6.004 4.133 6.357c.09.354.133 3.18 0 3.18s-4.71-8.3-5.067-8.08c-.355.222-.755.972-.622 1.15.133.176 5.778 8.343 5.778 8.652s.044 2.65-.222 2.605c-.267-.044-5.156-8.697-5.467-8.653-.31.044-.71.883-.444 1.324.267.44 5.91 8.61 5.91 8.74s.18 3.312-.043 3.268c-.222-.044-6.445-9.977-6.756-9.8-.31.176-.578.882-.578.882s7.333 9.447 7.333 9.624c0 .177.177 3.002.177 3.002l-3.29-5.564-.354 1.192s4.044 5.783 4 5.916c-.045.132.09 3.002-.045 2.958-.133-.044-3.29-6.313-3.51-6.225-.223.09-.356 1.325-.268 1.634.09.31 3.91 5.607 3.91 5.783s.224 4.68.135 4.548zM6.12 56.885c-.266 0-.31-4.06-.266-4.547.045-.486-.933-.706-1.245-.177-.312.53-.222 6.31.177 6.49.978.442 2.49-.573 3.2-.66s1.2-.972 1.067-1.15c-.133-.176-2.666.045-2.933.045zm-.488-43.088c.844.22 1.11-.088 1.2-.397.09-.31 0-7.108.044-7.46.045-.354.4-.575 1.29-.62.888-.043 4.933-.22 5.333-.22s.62-1.148-.046-1.324c-.667-.177-5.467.044-7.2.265-1.733.222-1.155 4.416-1.067 6.314.09 1.898.056 3.342.445 3.443zm24-5.74c-1.2-.264-9.51-.705-14.356-.75-4.844-.043-5.453.76-5.91 1.28-.623.707-.623 3.09-.623 5.784S8.21 28.5 8.3 30.044c.088 1.545.666 1.59 2.977 1.633 2.31.044 10.533 0 14.8.044 4.267.044 3.956-.397 4.533-.883.578-.486 1.067-16.643 1.156-19.336.09-2.69-.934-3.177-2.134-3.442zm.045 18.587c-.267 3.002-.044 3.267-.755 3.488-.71.22-4.356.177-9.378.132-5.022-.044-6.71.177-6.933-.22-.22-.398-.577-14.702 1.2-16.953.553-.698 2.357-1.103 4.58-1.147 2.22-.044 10.755.618 11.466.883s.087 10.816-.18 13.818zM56.687 4.89c.3 0 .334 2.882.4 3.312.068.43 1.034.232 1.3.066.268-.166.034-4.106-.4-4.536-.432-.43-6.62-.257-6.8.1-.166.33-.1.96.134 1.092.235.132 5.068-.033 5.368-.033z"/></svg>