<svg xmlns="http://www.w3.org/2000/svg" viewBox="0 0 64 64" enable-background="new 0 0 64 64"><path d="M63.37 14.613c-1.792-6.49-7.637-7.34-12.964-6.49-5.326.854-8.58 4.88-10.89 8.053-2.31 3.173-2.97 5.636-2.073 5.968.896.332 3.96-1.752 5.42.568 1.462 2.32.237 5.115-1.932 8.525-2.167 3.41-5.89 5.636-7.164 5.447-1.273-.19-2.97-1.752-3.488-7.152-.52-5.4-2.12-11.32-4.478-16.482-2.357-5.163-4.996-6.773-7.636-7.768-2.64-.995-4.76.805-7.26 2.842C8.408 10.16.512 17.486.112 18.117c-.33.52.048 4.168 1.51 6.3 1.46 2.13 2.78 1.088 5.326.946s3.582 2.7 5.468 9.567S17.6 51.27 20.38 54.207c2.78 2.937 7.448 3.742 12.633 4.594 5.185.854 9.05-1.136 12.727-4.404s12.35-15.96 14.707-21.456c2.357-5.492 4.714-11.84 2.922-18.327zm-1.462 6.63s-2.31-6.3-3.205-7.39c-.896-1.088-1.414-.9-1.46-.33-.048.568 1.366 1.942 1.885 2.984.518 1.042 2.45 5.636 2.45 5.636s-.33 3.505-.612 3.173c-.283-.332-2.216-6.347-2.97-7.72-.754-1.374-1.084-1.61-1.65-1.28s-.188.854.19 1.232c.376.38 3.016 6.82 3.393 7.768.376.947.565 1.468.517 1.61-.047.142-.66 1.847-.848 1.705-.19-.14-3.253-8.003-3.678-8.193-.424-.19-.99.332-.66.947.33.616 3.912 7.53 3.912 7.862 0 .332-1.273 2.984-1.556 2.605-.283-.378-2.64-6.867-2.97-7.15-.33-.285-1.225.236-.943.71.283.473 2.828 6.06 3.11 6.535.284.474.378.616.142 1.042s-.8 2.416-1.13 1.99-2.405-6.632-2.83-6.87c-.423-.236-.706.475-.565.854.14.38 2.875 6.68 2.734 7.058-.14.38-1.18 2.794-1.367 2.51-.19-.284-2.075-7.483-2.735-7.39-.66.096-.896.427-.802.854.094.426 3.017 7.01 2.875 7.2s-1.084 2.746-1.32 2.13c-.236-.616-1.838-6.773-2.404-6.773s-1.178.662-1.037.804c.14.142 2.734 6.536 2.687 6.915-.047.378-2.12 2.746-2.263 2.367-.14-.38-2.073-6.82-2.356-7.01-.283-.19-1.084-.095-.943.52.142.617 2.688 6.632 2.452 7.153-.236.52-1.037 2.226-1.46 1.942-.425-.284-2.264-7.578-2.594-7.673-.33-.096-.754.52-.754.994s2.875 7.057 2.64 7.578-.896 1.942-1.367 1.468c-.47-.474-1.79-7.01-2.45-7.057-.66-.047-.99.616-.755 1.09.236.473 2.357 6.82 2.168 7.15-.19.333-.8.996-.99.76-.19-.238-2.404-6.585-2.687-6.82-.283-.238-.66.046-.707.804-.047.758 2.734 6.678 2.498 7.01-.236.332-1.273 1.468-1.46.947-.19-.52-2.028-6.678-2.405-6.82-.378-.142-.944.284-.803.758.14.474 2.97 6.44 2.45 6.82s-2.026 1.516-2.214.71c-.19-.805-1.886-5.59-2.31-5.73s-1.13.046-.848.804c.283.758 2.498 4.973 2.027 5.352-.47.38-1.18.805-1.697.474-.52-.332-1.603-5.02-2.12-5.352-.52-.33-1.132-.38-1.132-.047 0 .33 2.168 5.305 1.838 5.4-.33.094-1.178.236-1.413-.096-.236-.33-1.838-4.594-2.074-4.642-.236-.047-.943.095-.848.568.094.474 1.51 3.79 1.32 3.836-.19.046-1.084.188-1.508-.19-.424-.38-1.367-3.742-1.79-3.93-.425-.19-1.038-.048-.802.662.236.71 1.225 2.794.896 2.794-.33 0-2.45-.38-5.09-4.168-2.64-3.79-4.667-11.272-5.892-17.43-1.225-6.157-1.744-11.178-3.63-12.457-1.885-1.278-3.91-1.467-5.703-1.23-1.79.237-3.252 1.705-3.394 1.705-.14 0-1.555-1.09-.942-2.558.188-.45 5.987-6.584 9.427-9.094 3.44-2.51 4.195-3.41 6.41-2.747 2.216.663 5.233 2.368 7.967 10.373 2.734 8.003 3.488 16.813 4.242 18.565.754 1.752 2.263 2.984 4.525 2.463 2.262-.52 5.985-3.126 8.012-6.3 2.027-3.172 3.252-6.82 2.027-9.566-1.227-2.747-2.782-2.558-4.055-2.32-1.273.236-1.46-.19-1.32-.427.14-.237 2.828-4.973 5.75-7.152 2.923-2.18 8.816-4.026 12.35-2.652 3.536 1.375 4.573 6.016 4.81 7.816.237 1.805-.187 3.557-.187 3.557zM17.598 9.97c-1.837-.378-4.336 1.138-4.713 1.47-.377.33-.373 1.08-.047 1.278.47.284 1.273 0 1.98-.568.707-.568 1.225-.71 2.593-.71 1.368 0 1.603.853 1.934 1.042s.707-.095.66-.9c-.048-.806-.567-1.232-2.405-1.61zm7.732 18.283c-.236-.616-1.183-.604-1.32-.19-.19.57-.33 5.97.283 7.91.613 1.943 2.593 5.306 3.11 5.448.52.143 1.038-.378 1.038-.852s-.847-1.09-2.215-4.12c-1.367-3.032-.66-7.58-.895-8.195zm17.96-10.75c-.897.425-.614 1.23.517 1.704 1.13.474 1.037 1.563 1.414 1.99s.33.283.897.046c.566-.237.377-.663-.19-1.99-.564-1.325-2.1-2.008-2.638-1.75z"/></svg>